<?xml version="1.0" encoding="utf-8"?>
<!-- Generator: Adobe Illustrator 24.1.3, SVG Export Plug-In . SVG Version: 6.00 Build 0)  -->
<svg version="1.1" id="Layer_1" xmlns="http://www.w3.org/2000/svg" xmlns:xlink="http://www.w3.org/1999/xlink" x="0px" y="0px"
	 viewBox="0 0 38.5 38.5" style="enable-background:new 0 0 38.5 38.5;" xml:space="preserve">
<style type="text/css">
	.st0{fill:#E66454;}
	.st1{fill:#DBE0E3;}
	.st2{fill:#CE422C;}
	.st3{fill:#FBD463;}
	.st4{fill:#F5C359;}
	.st5{fill:#2E94BA;}
	.st6{fill:#28A2DB;}
	.st7{fill:#E3ECF1;}
	.st8{fill:#2AA2DB;}
	.st9{fill:#2BA2DA;}
	.st10{fill:#2E94BB;}
	.st11{fill:#3094BA;}
	.st12{fill:#29A2DB;}
	.st13{fill:#E1EBF0;}
	.st14{fill:#E7EEF2;}
	.st15{fill:#3195BB;}
	.st16{fill:#2AA2DC;}
	.st17{fill:#2F94BA;}
	.st18{fill:#E4ECF1;}
	.st19{fill:#E8EFF2;}
	.st20{fill:#3094BB;}
	.st21{fill:#3B566A;}
	.st22{fill:#435C70;}
	.st23{fill:#28A1DB;}
</style>
<g>
	<path class="st0" d="M18.7,33.3c-0.2-0.1-0.3-0.3-0.5-0.4c-2.5-2.6-5.1-5.2-7.6-7.8c-1.5-1.5-2.5-3.2-3-5.2c-0.4-1.5-0.6-3-0.4-4.5
		C7.4,12.5,8.6,10,10.6,8c1.8-1.8,3.9-2.9,6.4-3.3c4.2-0.6,7.8,0.8,10.7,4c1.4,1.6,2.3,3.5,2.6,5.5c0.7,4.1-0.3,7.8-3.2,10.8
		c-2.6,2.7-5.2,5.3-7.8,8c-0.1,0.1-0.2,0.2-0.3,0.3C18.9,33.3,18.8,33.3,18.7,33.3z"/>
	<path class="st1" d="M9.5,16.5c0-5.2,4-9.6,9.3-9.6c5.2,0,9.3,4.3,9.3,9.5c0,5.3-4.1,9.5-9.2,9.6C13.7,26.1,9.6,21.8,9.5,16.5z"/>
	<g>
		<path class="st2" d="M24.7,22.5c0.2,0,0.4,0,0.5,0c0.1,0,0.1,0,0.1,0.1c0,0.4,0,0.4-0.3,0.4c-4,0-8,0-12,0c-0.1,0-0.1,0-0.2,0
			c0-0.2,0-0.3,0-0.5c0.2,0,0.4,0,0.7,0c0,0,0.1,0,0.1,0c1,0,2,0,3,0c0.3,0,0.7,0,1,0c0.4,0,0.9,0,1.3,0c0.1,0,0.2,0,0.3,0
			c0.4,0,0.9,0,1.3,0c0.3,0,0.6,0,1,0c0.9,0,1.7,0,2.6,0c0.1,0,0.3,0,0.4,0C24.6,22.4,24.6,22.4,24.7,22.5z"/>
		<path class="st3" d="M17.5,22.5c-0.4,0-0.7,0-1.1,0c0,0,0-0.1,0-0.2c0-1.3,0-2.5,0-3.8c0-0.3,0-0.6,0-1c0-0.2,0-0.2-0.2-0.2
			c-1,0-2,0-3,0c-0.1,0-0.2,0-0.2-0.1c0,0,0.1,0,0.1,0c1,0,2.1,0,3.1,0c0.2,0,0.2,0,0.2-0.2c0-0.9,0-1.8,0-2.6c0-0.1,0-0.1,0-0.2
			c0.1,0,0.1,0,0.2,0c1.6,0,3.3,0,4.9,0c0.1,0,0.1,0,0.2,0c0,0.1,0,0.1,0,0.2c0,0.9,0,1.8,0,2.7c0,0.1,0,0.2,0.2,0.2
			c1.1,0,2.1,0,3.2,0c0,0,0.1,0,0.1,0c-0.1,0.1-0.1,0.1-0.2,0.1c-1,0-1.9,0-2.9,0c0,0-0.1,0-0.1,0c-0.2,0-0.2,0-0.2,0.2
			c0,0.3,0,0.6,0,1c0,1,0,2,0,3.1c0,0.2,0,0.5,0,0.7c0,0.1,0,0.1,0,0.2c-0.3,0-0.7,0-1,0c-0.1-0.1,0-0.2,0-0.2c0-1.2,0-2.4,0-3.6
			c0,0,0-0.1,0-0.1c0-0.2,0-0.2-0.2-0.2c-0.3,0-0.7,0-1,0c-0.2,0-0.2,0-0.2,0.2c0,1.2,0,2.4,0,3.7c0,0.1,0,0.2,0,0.3
			c-0.1,0-0.2,0-0.3,0c-0.1-0.1,0-0.2,0-0.3c0-1.2,0-2.4,0-3.6c0-0.3,0-0.3-0.2-0.3c-0.3,0-0.6,0-0.9,0c-0.2,0-0.2,0-0.2,0.3
			c0,1.2,0,2.4,0,3.6C17.5,22.3,17.6,22.4,17.5,22.5z"/>
		<path class="st0" d="M21.7,14.3c-1.8,0-3.5,0-5.3,0c0.2-0.2,0.4-0.4,0.5-0.7c0.6-0.7,1.2-1.4,1.9-2.2c0.1-0.1,0.1-0.1,0.1-0.2
			c0-0.6,0-1.1,0-1.7c0-0.1,0-0.1-0.1-0.1c-0.2,0-0.4,0-0.6,0c-0.1,0-0.1,0-0.1-0.1c0,0,0,0,0,0c0-0.2,0-0.2,0.2-0.2
			c0.2,0,0.3,0,0.5,0c0.1,0,0.1,0,0.1-0.1c0-0.2,0-0.5,0-0.7c0-0.1,0-0.2,0.1-0.1c0,0,0.1,0,0.1,0c0.1,0,0.1,0,0.1,0.1
			c0,0.2,0,0.5,0,0.7c0,0.1,0,0.1,0.1,0.1c0.2,0,0.4,0,0.5,0C20,9,20,9.1,20,9.1c0,0,0,0.1,0,0.1c0,0.1,0,0.2-0.1,0.2
			c-0.2,0-0.3,0-0.5,0c-0.1,0-0.1,0-0.1,0.1c0,0.6,0,1.2,0,1.7c0,0.1,0,0.2,0.1,0.2C20.1,12.4,20.9,13.3,21.7,14.3
			C21.7,14.2,21.7,14.2,21.7,14.3z"/>
		<path class="st4" d="M21.8,22.5c0-1.3,0-2.6,0-3.9c0.1-0.1,0.1-0.1,0.2-0.1c1,0,2.1,0,3.1,0c0.1,0,0.1,0,0.2,0c0,1.3,0,2.6,0,3.9
			c-0.5,0-1.1,0-1.6,0C23,22.5,22.4,22.5,21.8,22.5z"/>
		<path class="st4" d="M16.4,18.5c0,1.3,0,2.6,0,3.9c-0.8,0-1.6,0-2.4,0c-0.4,0-0.7,0-1.1,0c0-1.3,0-2.6,0-3.9c0.1-0.1,0.1,0,0.2,0
			c1,0,2.1,0,3.1,0C16.3,18.5,16.4,18.5,16.4,18.5z"/>
		<path class="st0" d="M25.2,18.5c-1.2,0-2.3,0-3.5,0c0-0.4,0-0.8,0-1.1c0-0.1,0.1-0.1,0.1-0.1c1.1,0,2.1,0,3.2,0c0,0,0.1,0,0.1,0
			C25.3,17.7,25.2,18.1,25.2,18.5z"/>
		<path class="st0" d="M16.4,18.5c-1.2,0-2.3,0-3.5,0c0-0.4,0-0.8,0-1.2c1.1,0,2.2,0,3.2,0c0.3,0,0.2,0,0.2,0.2
			C16.4,17.9,16.4,18.2,16.4,18.5z"/>
		<path class="st0" d="M17.5,22.5c0-1.3,0-2.7,0-4c0-0.1,0-0.2,0.2-0.2c0.4,0,0.8,0,1.2,0c0.1,0,0.1,0,0.1,0.2c0,1.3,0,2.7,0,4
			C18.5,22.5,18,22.5,17.5,22.5z"/>
		<path class="st0" d="M19.3,22.5c0-1.3,0-2.7,0-4c0-0.2,0-0.2,0.2-0.2c0.4,0,0.8,0,1.1,0c0.1,0,0.2,0,0.2,0.2c0,1.3,0,2.7,0,4
			C20.2,22.5,19.7,22.5,19.3,22.5z"/>
		<path class="st5" d="M19.8,15.4c0,0.6,0,1.3,0,1.9c0,0.1,0,0.1-0.1,0.1c-0.2,0-0.4,0-0.6,0c0,0,0-0.1,0-0.1c0-0.5,0-0.9,0-1.4
			c0.1-0.2,0.1-0.4,0.3-0.6C19.5,15.4,19.7,15.3,19.8,15.4z"/>
		<path class="st6" d="M18.4,17.4c0-0.7,0-1.3,0-2c0.2-0.1,0.4,0,0.6,0c0.1,0,0.1,0.1,0.1,0.2c0,0.2,0,0.4,0,0.6
			c-0.1,0.3-0.3,0.6-0.4,0.8C18.6,17.1,18.6,17.2,18.4,17.4C18.5,17.4,18.5,17.4,18.4,17.4z"/>
		<path class="st7" d="M19,16.1c0-0.2,0-0.4,0-0.6c0-0.1,0-0.1-0.1-0.1c-0.2,0-0.4,0-0.5,0c0,0,0-0.1,0-0.1c0-0.1,0.1-0.1,0.1-0.1
			c0.1,0,0.2,0,0.3,0c0.2,0,0.2,0,0.2-0.2c0-0.1,0-0.2,0-0.3c0-0.1,0-0.1,0-0.2c0,0,0.1,0,0.1,0c0,0,0,0.1,0,0.1c0,0,0,0.1,0,0.1
			c0,0.4,0,0.3,0.3,0.3c0.1,0,0.2,0,0.3,0.1c0,0,0,0.1,0,0.1c-0.1,0-0.3,0-0.4,0c-0.2,0-0.2,0.1-0.2,0.3c0,0.1,0,0.1,0,0.2
			c0,0.5,0,1,0,1.6c0,0-0.1,0-0.1,0c-0.1,0-0.1-0.1-0.1-0.2c0-0.3,0-0.6,0-0.9C19,16.3,19,16.2,19,16.1z"/>
		<path class="st8" d="M19.1,14.6c0,0.2,0,0.4,0,0.6c0,0.1,0,0.1-0.1,0.1c-0.2,0-0.4,0-0.5,0c0-0.2,0-0.4,0-0.6c0-0.1,0-0.1,0.1-0.1
			C18.7,14.6,18.9,14.6,19.1,14.6z"/>
		<path class="st5" d="M19,16.1c0,0.4,0,0.9,0,1.3c-0.2,0-0.4,0-0.6,0c0,0-0.1,0-0.1,0c0.2-0.3,0.3-0.6,0.5-1
			C18.9,16.3,19,16.2,19,16.1z"/>
		<path class="st9" d="M19.5,15.3c-0.3,0-0.3,0-0.3-0.3c0-0.1,0-0.2,0-0.3c0.2,0,0.4,0,0.6,0c0,0,0.1,0,0.1,0
			C19.7,14.8,19.6,15.1,19.5,15.3z"/>
		<path class="st10" d="M19.5,15.3c0.1-0.2,0.2-0.4,0.3-0.6c0,0.2,0,0.4,0,0.6C19.7,15.3,19.6,15.3,19.5,15.3z"/>
		<path class="st11" d="M24.1,21.6c0,0.2,0,0.4,0,0.6c0,0.1,0,0.1-0.1,0.1c-0.2,0-0.4,0-0.6,0c0,0,0-0.1,0-0.2c0-0.1,0-0.3,0-0.4
			c0-0.1,0-0.1,0.1-0.2C23.7,21.5,23.9,21.5,24.1,21.6z"/>
		<path class="st12" d="M22.8,21.5c0-0.2,0-0.4,0-0.6c0-0.1,0-0.1,0.1-0.1c0.2,0,0.4,0,0.6,0c0.1,0.2,0,0.4,0,0.6c0,0,0,0.1-0.1,0.1
			C23.2,21.5,23,21.5,22.8,21.5z"/>
		<path class="st5" d="M24.1,19.8c0,0.2,0,0.4,0,0.6c0,0.1,0,0.1-0.1,0.1c-0.2,0-0.4,0-0.6,0c-0.1,0,0-0.1,0-0.2c0-0.1,0-0.2,0-0.4
			c0-0.1,0-0.1,0.1-0.1C23.7,19.7,23.9,19.7,24.1,19.8z"/>
		<path class="st6" d="M22.8,19.6c0-0.2,0-0.4,0-0.6c0-0.1,0-0.1,0.1-0.1c0.2,0,0.4,0,0.6,0c0.1,0.2,0,0.4,0,0.6c0,0,0,0.1-0.1,0.1
			C23.2,19.7,23,19.7,22.8,19.6z"/>
		<path class="st13" d="M22.8,19.6c0.2,0,0.4,0,0.5,0c0.1,0,0.1,0,0.1-0.1c0-0.2,0-0.3,0-0.5c0,0,0.1,0,0.1,0c0.1,0.1,0,0.3,0,0.4
			c0,0.1,0,0.1,0.1,0.2c0.1,0,0.3,0,0.4,0c0.1,0,0.1,0,0.2,0.1c0,0,0,0.1,0,0.1c-0.2,0-0.4,0-0.6,0c-0.1,0-0.1,0-0.1,0.1
			c0,0.2,0,0.4,0,0.6c0,0-0.1,0-0.1,0c-0.1-0.1,0-0.2,0-0.3c0-0.1,0-0.2,0-0.3c-0.1,0-0.3,0-0.4,0c-0.1,0-0.1,0-0.2-0.1
			C22.7,19.7,22.7,19.7,22.8,19.6z"/>
		<path class="st14" d="M22.8,21.5c0.2,0,0.3,0,0.5,0c0.1,0,0.2,0,0.2-0.2c0-0.2,0-0.3,0-0.5c0,0,0,0,0.1,0c0.1,0.1,0,0.3,0,0.4
			c0,0.1,0,0.2,0,0.2c0.1,0,0.3,0,0.4,0c0.1,0,0.1,0,0.2,0c0,0,0,0.1,0,0.1c-0.2,0-0.4,0-0.6,0c-0.1,0-0.1,0-0.1,0.1
			c0,0.2,0,0.4,0,0.6c0,0-0.1,0-0.1,0c-0.1-0.1,0-0.2,0-0.2c0-0.1,0-0.3,0-0.4c-0.1,0-0.3,0-0.4,0c-0.1,0-0.1,0-0.2-0.1
			C22.7,21.5,22.7,21.5,22.8,21.5z"/>
		<path class="st15" d="M24.1,21.4c-0.2,0-0.4,0-0.6,0c0-0.1,0-0.1,0.1-0.2c0.1-0.2,0.3-0.3,0.4-0.5c-0.2,0-0.3,0-0.4,0
			c0,0-0.1,0-0.1-0.1c0.2,0,0.4,0,0.6,0c0.1,0,0.1,0,0.1,0.1C24.1,21,24.1,21.2,24.1,21.4z"/>
		<path class="st6" d="M23.5,19.6c-0.1,0,0-0.1,0-0.1c0-0.2,0-0.4,0-0.5c0.2,0,0.4,0,0.6,0c0,0,0,0.1,0,0.1
			C23.9,19.2,23.7,19.4,23.5,19.6z"/>
		<path class="st5" d="M23.4,21.6c0.1,0,0,0.1,0,0.1c0,0.2,0,0.4,0,0.5c-0.2,0-0.4,0-0.6,0c0-0.1,0-0.1,0.1-0.1
			C23,21.9,23.2,21.7,23.4,21.6z"/>
		<path class="st6" d="M23.5,20.8c0.2,0,0.4,0,0.6,0c-0.2,0.2-0.4,0.4-0.6,0.6c-0.1,0,0-0.1,0-0.1C23.5,21.1,23.5,20.9,23.5,20.8
			C23.5,20.8,23.5,20.8,23.5,20.8z"/>
		<path class="st5" d="M23.4,19.8c0.1,0.1,0,0.1,0,0.2c0,0.1,0,0.3,0,0.4c-0.2,0-0.4,0-0.6,0c0,0-0.1,0-0.1,0
			C23,20.2,23.1,19.9,23.4,19.8z"/>
		<path class="st6" d="M23.4,21.6c-0.2,0.2-0.4,0.4-0.6,0.7c0-0.2,0-0.4,0-0.7C23,21.6,23.2,21.6,23.4,21.6z"/>
		<path class="st5" d="M23.5,19.6c0.1-0.2,0.3-0.3,0.5-0.5c0,0,0.1-0.1,0.1-0.1c0.1,0.1,0,0.2,0,0.3c0,0.1,0,0.3,0,0.4
			C23.9,19.6,23.7,19.6,23.5,19.6z"/>
		<path class="st6" d="M23.4,19.8c-0.2,0.2-0.4,0.5-0.6,0.6c0-0.2,0-0.4,0-0.6C23,19.7,23.2,19.8,23.4,19.8z"/>
		<path class="st8" d="M14.1,21.3c0-0.2,0-0.4,0-0.6c0-0.1,0-0.1,0.1-0.1c0.2,0,0.4,0,0.6,0c0.1,0.2,0,0.4,0,0.6c0,0,0,0.1-0.1,0.1
			C14.5,21.3,14.3,21.4,14.1,21.3z"/>
		<path class="st16" d="M14.1,19.5c0-0.2,0-0.4,0-0.6c0-0.1,0-0.1,0.1-0.1c0.2,0,0.4,0,0.6,0c0.1,0.1,0,0.2,0,0.3
			c0,0.4,0,0.4-0.4,0.4C14.3,19.5,14.2,19.6,14.1,19.5z"/>
		<path class="st17" d="M15.5,21.4c0,0.2,0,0.4,0,0.6c0,0.1,0,0.1-0.1,0.1c-0.2,0-0.4,0-0.6,0c-0.1-0.1,0-0.2,0-0.3
			c0-0.1,0-0.1,0-0.2c0-0.2,0-0.2,0.2-0.2c0.1,0,0.2,0,0.3,0C15.4,21.4,15.5,21.4,15.5,21.4z"/>
		<path class="st5" d="M15.5,19.6c0,0.2,0,0.4,0,0.6c0,0.1,0,0.1-0.1,0.1c-0.2,0-0.4,0-0.6,0c-0.1-0.2,0-0.4,0-0.6
			c0,0,0-0.1,0.1-0.1C15.1,19.6,15.3,19.5,15.5,19.6z"/>
		<path class="st18" d="M15.5,21.4c-0.2,0-0.3,0-0.5,0c-0.1,0-0.2,0-0.1,0.2c0,0.2,0,0.3,0,0.5c0,0-0.1,0-0.1,0c0,0,0,0,0,0
			c0-0.2,0-0.3,0-0.5c0-0.1,0-0.1-0.1-0.1c-0.1,0-0.2,0-0.4,0c-0.1,0-0.1,0-0.2,0c0,0,0-0.1,0-0.1c0.2,0,0.4,0,0.5,0
			c0.1,0,0.1,0,0.1-0.1c0-0.2,0-0.4,0-0.5c0,0,0,0,0.1,0c0.1,0.1,0,0.2,0,0.3c0,0.1,0,0.3,0,0.4c0.1,0,0.3,0,0.4,0
			c0.1,0,0.1,0,0.2,0C15.5,21.3,15.5,21.4,15.5,21.4z"/>
		<path class="st19" d="M15.5,19.6c-0.2,0-0.4,0-0.5,0c-0.1,0-0.1,0-0.1,0.1c0,0.2,0,0.3,0,0.5c0,0-0.1,0-0.1,0
			c-0.1-0.1,0-0.3,0-0.4c0-0.1,0-0.2,0-0.2c-0.1,0-0.3,0-0.4,0c-0.1,0-0.1,0-0.2,0c0,0,0-0.1,0-0.1c0.2,0,0.4,0,0.5,0
			c0.1,0,0.1,0,0.1-0.1c0-0.2,0-0.4,0-0.6c0,0,0.1,0,0.1,0c0.1,0.1,0,0.3,0,0.4c0,0.3,0,0.2,0.2,0.3c0.1,0,0.3,0,0.4,0
			C15.5,19.5,15.5,19.6,15.5,19.6z"/>
		<path class="st12" d="M15.5,19.5c-0.2,0-0.4,0-0.5,0c-0.1,0-0.1,0-0.1-0.1c0-0.2,0-0.4,0-0.6c0.2,0,0.4,0,0.6,0c0,0,0.1,0,0.1,0
			c-0.1,0.1-0.1,0.2-0.2,0.3c-0.1,0.1-0.2,0.2-0.3,0.3c0.1,0,0.2,0,0.4,0C15.4,19.4,15.4,19.4,15.5,19.5
			C15.5,19.5,15.5,19.5,15.5,19.5z"/>
		<path class="st6" d="M14.1,21.4c0.2,0,0.4,0,0.6,0c0.1,0,0.1,0,0.1,0.1c0,0.2,0,0.4,0,0.5c0,0,0,0,0,0c0-0.2,0-0.4,0-0.5
			c-0.1,0.2-0.3,0.3-0.5,0.5c0,0-0.1,0.1-0.1,0.1C14.1,21.9,14.1,21.6,14.1,21.4z"/>
		<path class="st6" d="M14.9,21.3c-0.1-0.1,0-0.1,0-0.2c0-0.2,0-0.3,0-0.5c0.2,0,0.4,0,0.6,0c0,0,0.1,0,0.1,0
			C15.3,20.9,15.1,21.1,14.9,21.3z"/>
		<path class="st20" d="M14.7,19.6c0.1,0,0,0.1,0,0.1c0,0.2,0,0.4,0,0.5c-0.2,0-0.4,0-0.6,0c0-0.1,0.1-0.1,0.1-0.2
			C14.4,19.9,14.5,19.7,14.7,19.6z"/>
		<path class="st11" d="M14.1,22.1c0.1,0,0.1-0.1,0.1-0.1c0.2-0.2,0.3-0.4,0.5-0.5c0,0.2,0,0.4,0,0.6c0,0,0,0,0,0
			C14.6,22.1,14.4,22.1,14.1,22.1C14.1,22.1,14.1,22.1,14.1,22.1z"/>
		<path class="st6" d="M14.7,19.6c-0.1,0.2-0.3,0.4-0.5,0.5c0,0-0.1,0.1-0.1,0.1c-0.1-0.1,0-0.3,0-0.4c0-0.1,0-0.2,0-0.3
			C14.3,19.6,14.5,19.6,14.7,19.6z"/>
		<path class="st5" d="M14.9,21.3c0.2-0.2,0.4-0.5,0.6-0.6c0,0.2,0,0.4,0,0.6C15.3,21.3,15.1,21.3,14.9,21.3z"/>
		<path class="st15" d="M15.5,19.5c-0.2,0-0.4,0-0.6,0c0.2-0.3,0.4-0.4,0.6-0.6C15.5,19,15.5,19.2,15.5,19.5z"/>
		<path class="st21" d="M18.8,20.5c0,0.1,0,0.2,0,0.3c0,0.1,0,0.1-0.1,0.1c-0.1,0-0.1,0-0.1-0.1c0-0.2,0-0.4,0-0.6
			c0-0.1,0-0.1,0.1-0.1c0.1,0,0.1,0,0.1,0.1C18.8,20.3,18.8,20.4,18.8,20.5z"/>
		<path class="st22" d="M19.4,20.4c0-0.1,0-0.2,0-0.3c0,0,0-0.1,0.1-0.1c0,0,0.1,0,0.1,0.1c0,0.2,0,0.4,0,0.6c0,0.1,0,0.1-0.1,0.1
			c0,0-0.1,0-0.1-0.1C19.4,20.6,19.4,20.5,19.4,20.4z"/>
		<path class="st23" d="M19.1,15.9c0-0.1,0-0.1,0-0.2c0-0.3,0-0.3,0.2-0.3C19.3,15.6,19.2,15.7,19.1,15.9z"/>
	</g>
</g>
</svg>
