<svg id="Layer_1" data-name="Layer 1" xmlns="http://www.w3.org/2000/svg" viewBox="0 0 308.1 308.2"><defs><style>.cls-1{fill:#2156a7;}.cls-2{fill:#f0efef;}.cls-3{fill:#d71f2a;}.cls-4{fill:#e37c8f;}.cls-5{fill:#eeeded;}.cls-6{fill:#4d82c3;}.cls-7{fill:#4e83c3;}</style></defs><path class="cls-1" d="M185.1,325.1H161.6c-4.4-.6-8.9-.5-13.4-1-9.6-.9-18.7-3.7-27.6-6.9a148.6,148.6,0,0,1-41.5-22.8C61.4,280.5,46.8,264,36.3,243.9A172.4,172.4,0,0,1,29,228.2c-.6-1.6-1.1-3.3.8-4.5a17.6,17.6,0,0,1,5.1-.4h90.3a21.9,21.9,0,0,1,5.1.4h1.1c3.4,1.8,5.5,5.1,8.4,7.5a9.3,9.3,0,0,0,1.8,1.6l1.2.6a53.1,53.1,0,0,0,20.9,9.2,81.2,81.2,0,0,0,19.7,0,55.5,55.5,0,0,0,21-9.2l1.2-.6c2.9-2.5,5.5-5.3,8.3-8a3.1,3.1,0,0,1,1.8-1.1h1a25,25,0,0,1,5.4-.4h89.8a24.8,24.8,0,0,1,5.4.3c2.6,1.6,1.3,3.7.5,5.5A176.7,176.7,0,0,1,307,250.9c-8.2,14.3-19.1,26.2-31.2,37.2a141.6,141.6,0,0,1-30.9,21,146.3,146.3,0,0,1-41.5,14.5c-5.3,1-10.8.9-16.1,1.3C186.7,324.9,185.8,324.6,185.1,325.1Z" transform="translate(-19.6 -16.9)"/><path class="cls-2" d="M131.7,224.6H29.3c-1.6-.1-2.1-1.4-2.5-2.6-3.6-10.6-6.5-21.3-6.6-32.4a28,28,0,0,0-.6-7.1V159.7c.7-5.2.6-10.4,1.2-15.6,1-8.6,3.5-16.8,6.4-24.9a3.4,3.4,0,0,1,2.4-2.4,18.5,18.5,0,0,1,5.7-.6H114c2.1,0,4.2-.3,6.2.9s1.2,2.7,1.3,4.2V133c0,1.3-.1,2.8,1,3.9a14.3,14.3,0,0,0,7,1.5h9.7c1.3,0,2.8.4,2.8,2,0,6.7.6,13.4-.4,20.1-1.1,1.3-2.6,1.2-4.1,1.2-4.1.1-8.2-.1-12.3.1s-3.6.7-3.7,3.5V177c.1,2.8.8,3.4,3.7,3.5h11.9c1.6,0,3.1,0,4.3,1a5.1,5.1,0,0,1,.6,3.2v14.9c0,3.8-.4,4.1-4.1,4.2h-7.8a12.9,12.9,0,0,0-5.8,1.2c-1.1,1-.3,2.1,0,3,1.4,4.8,3.9,9,6.6,13.2C131.7,222.3,132.3,223.3,131.7,224.6Z" transform="translate(-19.6 -16.9)"/><path class="cls-2" d="M318,117.5q19.3,53.5,0,107.3H215.7c-.9-1.7.4-3,1.2-4.3A48.7,48.7,0,0,0,223,208c.3-1,1.1-2.1-.1-3-3.6-1.6-7.4-1-11-1.1h-3.8c-1.7,0-2.7-.7-2.7-2.5-.1-6.2-.2-12.4.1-18.6a1.5,1.5,0,0,1,.4-1.1c1.2-1.1,2.7-1.1,4.3-1.1h12.3c2.3,0,3.5-1.1,3.5-3.5v-12c0-2.4-1.2-3.3-3.5-3.4H210.2c-1.6,0-3.1,0-4.3-1.1s-.5-3.3-.5-5c-.1-4.6,0-9.2,0-13.8,0-2.5,1.1-3.5,3.5-3.4h9.3a13,13,0,0,0,6.9-1.6c1-1.1.9-2.4,1-3.7.1-4,0-7.8.1-11.8,0-1.5,0-3,1.2-4.2s3-.8,4.6-.8h81.5A6.1,6.1,0,0,1,318,117.5Z" transform="translate(-19.6 -16.9)"/><path class="cls-2" d="M184.5,243.5a49.7,49.7,0,0,1-21.7,0c-.4-.5-1-.9-1-1.4-.5-5.6-.9-11.4.3-17,0-.3.3-.5.5-.7a3.3,3.3,0,0,1,2.1-.9c6.1-.2,12-.3,18,0a3.6,3.6,0,0,1,2,.8,4.3,4.3,0,0,1,1,2.4c.2,4.8.2,9.5,0,14.3A3.9,3.9,0,0,1,184.5,243.5Z" transform="translate(-19.6 -16.9)"/><path class="cls-3" d="M131.7,224.6c-4.4-6.2-8.2-12.8-9.9-20.4.1-1.3,1-1,1.8-1h15.9c1.3,0,2.5.4,2.5,1.9,0,6.4.4,12.8-.2,19.2,0,.2-.2.3-.3.6-3.2,1.9-6.3,1.3-9.4-.2Z" transform="translate(-19.6 -16.9)"/><path class="cls-3" d="M225.5,204.2c-1.7,7.6-5.4,14.1-9.8,20.4h-.4c-3.1,1.4-6.2,2.1-9.4.2a4.6,4.6,0,0,1-.7-2.6V206.1c0-2.1.7-3,3-2.9,5.1.1,10.2,0,15.2,0C224.2,203.3,225.3,202.8,225.5,204.2Z" transform="translate(-19.6 -16.9)"/><path class="cls-3" d="M162.8,224.6v18.9a49.9,49.9,0,0,1-21.1-9.5,13,13,0,0,1-.1-9.5,3.1,3.1,0,0,1,2.5-1.1c5.6-.1,11.1-.2,16.7,0a2.3,2.3,0,0,1,1.6.8C162.6,224.2,162.6,224.4,162.8,224.6Z" transform="translate(-19.6 -16.9)"/><path class="cls-3" d="M184.5,243.5V224.6l.3-.5a3.2,3.2,0,0,1,2.2-.8c5.3-.1,10.5-.1,15.8,0a4.1,4.1,0,0,1,2.8,1.1,12.8,12.8,0,0,1,0,9.6A47.1,47.1,0,0,1,184.5,243.5Z" transform="translate(-19.6 -16.9)"/><path class="cls-4" d="M205.6,234v-9.4c-1.4-1-1.4-2.5-1.4-4.1-.1-4,.1-7.9-.1-11.9s-.7-3.6-3.6-3.7c-5.4-.1-10.8.2-16.2-.2q-10.7.5-21.3,0c-5.3.3-10.6.1-15.8.2-3.2.1-3.9.7-3.9,3.9s0,8-.1,12c0,1.4-.1,2.8-1.4,3.8,0,3.1-.1,6.2-.1,9.4l-.5-.6c-1.5-3-2.4-6,0-8.8,0-6.2.1-12.4.1-18.7,0-1.2.3-2.5-1.7-2.5H123.2a1.4,1.4,0,0,0-1.3.7c-.4-2.1,1.3-1.3,2.1-1.3,4.9,0,9.7-.1,14.6,0,2.3.1,2.9-.7,2.8-2.9-.2-6.1-.1-12.1-.1-18.2a3.4,3.4,0,0,1-1.3-3.1V163.4a3.9,3.9,0,0,1,1.3-3.2c0-6.2,0-12.4.1-18.5,0-2-.6-2.7-2.6-2.6H123.3c-1,0-2.2.5-3-.7,1-1.2,2.4-1.2,3.8-1.2h11.4c3.9-.1,4.4-.6,4.5-4.4V121.4c0-1.4,0-2.8,1.1-3.9a.9.9,0,0,1,1-.2c1.4,1.1,1.2,2.6,1.2,4.2.1,4,0,7.9.1,12s.7,3.5,3.6,3.6c5.4.1,10.8-.2,16.2.2q10.7-.5,21.3,0c5.3-.3,10.5-.1,15.8-.2,3.4-.1,4-.7,4.1-4.1V121.3c0-1.4,0-2.8,1.1-3.9a.8.8,0,0,1,1-.1c1.2,1,1.2,2.5,1.2,3.8.1,4,0,7.8.1,11.8s.7,4,4,4.1h11.8c1.3,0,2.8,0,3.8,1.3-.8,1.2-2.1.6-3,.6H208.9c-2-.1-2.6.6-2.6,2.6.1,6.2.1,12.4.1,18.5a4,4,0,0,1,1.3,3.2v15.2a3.6,3.6,0,0,1-1.3,3.1c0,6.1.1,12.2-.1,18.3-.1,2.1.5,2.9,2.8,2.9,4.9-.2,9.7-.1,14.6,0,.8,0,2.5-.9,2.1,1.2-.7-.9-1.7-.7-2.5-.7-4.8,0-9.6.1-14.4-.1-1.9,0-2.6.6-2.5,2.6.1,6.2.1,12.4.1,18.7,2.3,2.9,1.5,5.8,0,8.8Z" transform="translate(-19.6 -16.9)"/><path class="cls-5" d="M141.2,224.6c0,3,0,6-.1,8.9a38,38,0,0,1-9.1-8.8Z" transform="translate(-19.6 -16.9)"/><path class="cls-5" d="M206.2,233.6c0-3,0-6-.1-8.9h9.1A41.8,41.8,0,0,1,206.2,233.6Z" transform="translate(-19.6 -16.9)"/><path class="cls-3" d="M318,117.5H227.1l-.4-.2c-1.1-1.1-.9-2.6-.9-4V94.9a6,6,0,0,0-2.7-5.5c-3.8-2.7-7.4-5.5-11.1-8.3-1.8-1.4-3.3-1.7-5.3-.1-3.7,2.9-7.5,5.7-11.3,8.5a7.7,7.7,0,0,1-3.3,1.8c-2,.3-3.4-.9-4.9-2l-10.5-7.9c-3.1-2.3-3.2-2.3-6.2-.1s-7,5.3-10.5,7.9c-1.4,1.1-2.8,2.4-4.8,2.1-4.1-1.3-7-4.6-10.4-7a42.9,42.9,0,0,1-4.8-3.6,3.1,3.1,0,0,0-4.4-.1L123.2,90a4.8,4.8,0,0,0-2.1,4.4c0,6.2.1,12.6,0,18.9,0,1.3.3,2.8-.8,3.9l-.4.3H29C49.4,66.1,86.2,32.7,140.2,21c56.4-12.3,105.3,3.7,145.7,45l1.1,1c10.2,11.6,19.1,24.2,25.5,38.2A96.3,96.3,0,0,1,318,117.5Z" transform="translate(-19.6 -16.9)"/><path class="cls-3" d="M141.2,160.3v21.6H122.5c-1.7,0-2.5-.2-2.5-2.3q.3-8.5,0-17.1c-.1-2,.8-2.3,2.5-2.3C128.8,160.4,135,160.3,141.2,160.3Z" transform="translate(-19.6 -16.9)"/><path class="cls-3" d="M141.2,117.6c0,6.1,0,12.2.1,18.3,0,1.8-.3,2.8-2.4,2.8-6.2-.2-12.5-.1-18.6-.2v-21h-.1a3.7,3.7,0,0,1,3.1-1.3c5-.1,9.9-.2,14.9,0C139.3,116.2,140.6,116.3,141.2,117.6Z" transform="translate(-19.6 -16.9)"/><path class="cls-3" d="M206.1,181.9V160.3h18.7c1.7,0,2.5.2,2.5,2.3q-.3,8.6,0,17.1c.1,2-.8,2.2-2.5,2.2Z" transform="translate(-19.6 -16.9)"/><path class="cls-3" d="M227.2,138.5c-6.2,0-12.5,0-18.7.2-2,.1-2.4-.9-2.4-2.8.1-6.1.1-12.2.1-18.3.7-1.3,1.9-1.4,3.1-1.4,5-.1,9.9-.1,14.8,0a4,4,0,0,1,3.2,1.4h-.1Z" transform="translate(-19.6 -16.9)"/><path class="cls-3" d="M162.9,203.6h21.5a4.2,4.2,0,0,1,1.5,3.4v14.2a4.1,4.1,0,0,1-1.4,3.4H162.9a3.8,3.8,0,0,1-1.4-3.4c-.1-4.8-.1-9.4,0-14.2A3.8,3.8,0,0,1,162.9,203.6Z" transform="translate(-19.6 -16.9)"/><path class="cls-2" d="M162.9,203.6v21H141.8c0-6.2.1-12.3,0-18.5,0-2,.6-2.6,2.6-2.6Z" transform="translate(-19.6 -16.9)"/><path class="cls-2" d="M184.4,224.6v-21H203c1.9,0,2.6.6,2.6,2.6-.1,6.2,0,12.3,0,18.5Z" transform="translate(-19.6 -16.9)"/><path class="cls-6" d="M141.2,117.6H120.1c0-8.1.1-16.1,0-24.3a4.4,4.4,0,0,1,2.2-4.1c4.6-3.3,9.2-6.7,13.6-10.3,1.7-1.4,2.8-1.2,4.3.1,5.1,4,10.4,7.8,15.5,11.7a3.5,3.5,0,0,1,1.2,3.2c.1,6.8.1,13.8,0,20.6a5.8,5.8,0,0,1-.9,3.4c-4.8,1.6-9.5,1.9-14.2-.3Z" transform="translate(-19.6 -16.9)"/><path class="cls-7" d="M227.2,117.5H205.4c-.5.4-.9,1-1.4,1-4.3.1-8.6,1.1-12.7-.7a7.4,7.4,0,0,1-1-4.1c-.1-6.5-.1-12.9,0-19.4,0-1.4-.1-2.8,1.3-3.8l15.8-11.9c1.4-1.1,2.3-1.3,3.8-.1q7.1,5.6,14.4,10.8a3.8,3.8,0,0,1,1.6,3.5Z" transform="translate(-19.6 -16.9)"/><path class="cls-2" d="M141.8,181.9V160.3a3.5,3.5,0,0,1,1.9-1.3c6.3-.1,12.6-.8,18.8.4a3.2,3.2,0,0,1,.9.8,152.8,152.8,0,0,1,0,21.4,1.4,1.4,0,0,1-.8.9,7.9,7.9,0,0,1-4,.7c-4.3,0-8.8.1-13.1,0C144.1,183.2,142.7,183.1,141.8,181.9Z" transform="translate(-19.6 -16.9)"/><path class="cls-3" d="M184.4,138.6H162.9a3.2,3.2,0,0,1-1.4-2.8c-.2-5.2-.2-10.6,0-15.8a4.9,4.9,0,0,1,.9-2.8,3.5,3.5,0,0,1,2.7-1c5.7-.1,11.2-.1,16.8,0a3.7,3.7,0,0,1,2.8.9,4.2,4.2,0,0,1,1,2.8c.2,5.3.2,10.5,0,15.8A3,3,0,0,1,184.4,138.6Z" transform="translate(-19.6 -16.9)"/><path class="cls-2" d="M205.6,160.3v21.6c-.6.5-1.2,1.2-2,1.2-6.2.1-12.5.8-18.7-.4a2.2,2.2,0,0,1-.9-.8,152.8,152.8,0,0,1-.1-21.4,1.6,1.6,0,0,1,.8-.8,7.4,7.4,0,0,1,4.1-.8h13.1A4.2,4.2,0,0,1,205.6,160.3Z" transform="translate(-19.6 -16.9)"/><path class="cls-2" d="M184.4,203H162.9a4,4,0,0,1-1.4-3.5q-.1-7,0-14.1a3.9,3.9,0,0,1,1.4-3.5h-.1a3.6,3.6,0,0,1,3-.9h15.6c1.2,0,2.3,0,3.1.9h-.1a4.3,4.3,0,0,1,1.4,3.5q.1,7,0,14.1A4,4,0,0,1,184.4,203Z" transform="translate(-19.6 -16.9)"/><path class="cls-2" d="M162.9,139.2h21.5a3.7,3.7,0,0,1,1.4,3.4c.1,4.8.1,9.4,0,14.2a4.1,4.1,0,0,1-1.4,3.4h.1a3.8,3.8,0,0,1-3.1,1H165.8a3.7,3.7,0,0,1-3-1h.1a3.8,3.8,0,0,1-1.4-3.4c-.1-4.8-.1-9.4,0-14.2A3.7,3.7,0,0,1,162.9,139.2Z" transform="translate(-19.6 -16.9)"/><path class="cls-2" d="M163,117.6v21c-6.2,0-12.2-.1-18.3.1-2.2.1-3-.5-2.9-2.8.2-6.1.1-12.2.1-18.3l13.8-.2C158.4,115.7,160.7,115.8,163,117.6Z" transform="translate(-19.6 -16.9)"/><path class="cls-2" d="M184.4,138.6v-21c2.2-1.8,4.5-1.9,7.3-.2l13.8.2c0,6.1-.1,12.2.1,18.3,0,2.3-.8,2.9-2.9,2.8C196.6,138.5,190.5,138.6,184.4,138.6Z" transform="translate(-19.6 -16.9)"/><path class="cls-3" d="M162.9,139.2v21H141.8c0-6.2.1-12.4,0-18.5,0-2,.6-2.6,2.6-2.6C150.5,139.3,156.7,139.2,162.9,139.2Z" transform="translate(-19.6 -16.9)"/><path class="cls-3" d="M184.4,203V181.9h21.1c0,6.2-.1,12.4,0,18.6,0,1.9-.6,2.6-2.6,2.6C196.8,202.8,190.6,202.9,184.4,203Z" transform="translate(-19.6 -16.9)"/><path class="cls-3" d="M184.4,160.3V139.2c6.2,0,12.4.1,18.6,0,1.9,0,2.6.6,2.6,2.6-.1,6.2,0,12.4,0,18.6Z" transform="translate(-19.6 -16.9)"/><path class="cls-3" d="M162.9,181.9v21H144.3c-1.9,0-2.6-.5-2.6-2.6.1-6.1,0-12.3,0-18.5Z" transform="translate(-19.6 -16.9)"/><path class="cls-1" d="M191.7,117.5l-7.3.2H163l-7.3-.2V90.7c5.3-4,10.7-7.8,15.9-11.8,1.6-1.3,2.6-1.3,4.1,0l16,11.8Z" transform="translate(-19.6 -16.9)"/><path class="cls-3" d="M173.6,181.3c-2.4,0-4.9-.1-7.4,0s-2.8-.8-2.8-2.8q.2-7.5,0-15c0-1.9.7-2.7,2.6-2.6h15.3c1.9,0,2.6.8,2.6,2.6q-.2,7.6,0,15.3c0,1.8-.7,2.6-2.5,2.5S176.3,181.3,173.6,181.3Z" transform="translate(-19.6 -16.9)"/></svg>