<svg id="Layer_1" data-name="Layer 1" xmlns="http://www.w3.org/2000/svg" viewBox="0 0 313.6 314"><defs><style>.cls-1{fill:#d22227;}.cls-2{fill:#020202;}.cls-3{fill:#fec812;}</style></defs><path class="cls-1" d="M318.1,117.4c7.3,19.3,9.8,39.3,8.9,59.8a140.4,140.4,0,0,1-9,45.3c-1.6,1.6-3.6,1.2-5.5,1.2H29.7c-2.3,0-4.9.6-7-1.1a152.6,152.6,0,0,1-9-58.7,144.7,144.7,0,0,1,8.9-46.5c2.3-1.3,4.8-.8,7.2-.8H310C312.7,116.6,315.5,115.7,318.1,117.4Z" transform="translate(-13.6 -12.9)"/><path class="cls-2" d="M318.1,117.4H22.6A148.1,148.1,0,0,1,53.9,64.8C78,38.2,107.8,21.1,143.3,15.3c51.3-8.4,96.6,5.3,134.9,40.6A148.1,148.1,0,0,1,318.1,117.4Z" transform="translate(-13.6 -12.9)"/><path class="cls-3" d="M22.7,222.6H318a138.7,138.7,0,0,1-19.4,37.9c-22.5,31.3-52.4,52-89.6,61.6a150,150,0,0,1-70.5,1.4c-46-10-80.7-35.7-104.7-76.1A116.7,116.7,0,0,1,22.7,222.6Z" transform="translate(-13.6 -12.9)"/></svg>