<svg id="Layer_1" data-name="Layer 1" xmlns="http://www.w3.org/2000/svg" viewBox="0 0 317.4 317.8"><defs><style>.cls-1{fill:#d71f2a;}.cls-2{fill:#f0efef;}.cls-3{fill:#2156a7;}</style></defs><path class="cls-1" d="M183.1,327.8H158.9c-2.1-.6-4.3-.1-6.5-.5s-1.6-.1-2.2-.9-.7-4.3-.7-6.4V198.1c0-7.3,0-7.3-7.1-7.3H20.7c-2.2,0-4.4.3-6.4-.7s-.8-3.6-1.2-5.5.2-2.2-.3-3.3V157.1c.6-2.3.1-4.7.5-7.2.2-.8.1-1.6.8-2.1s4.3-.8,6.4-.8H142.2c7.2,0,7.2,0,7.2-7.1V17.9c0-2.1-.3-4.3.8-6.4s3.6-.8,5.4-1.2,2.3.2,3.3-.3h23.5c2.5.7,5.2,0,7.7.5.8.2,1.7,0,2.2.8s.8,4.3.8,6.4V139.6c0,7.4,0,7.4,7.4,7.4H322.3c2.2,0,4.4-.4,6.4.8s.8,1.9.9,2.9a255.8,255.8,0,0,1,0,36.1c-.1,1,.1,2.1-.8,2.9s-4.4,1-6.6,1H196.5c-2.3.1-3.4,1.3-3.4,3.5V319.8c0,2.1.4,4.3-.7,6.3s-3.8.9-5.7,1.2S184.2,327.3,183.1,327.8Z" transform="translate(-12.8 -10)"/><path class="cls-2" d="M212.9,322.3a151.8,151.8,0,0,1-21.1,4.3c.1-1.4.1-2.6.1-4,0-43.1.1-86.1,0-129.3,0-3,.7-3.8,3.7-3.7h129l4-.2c-1.2,7-2.1,14.2-4.3,21.1-1.5,1.6-3.4,1.3-5.3,1.3H249.4a18.7,18.7,0,0,0-3.3.1c.2,1,1.1,1.5,1.6,2.2,15.6,15.6,31.2,31.3,46.9,46.9a11.8,11.8,0,0,1,3.1,4.2c-1.7,1.8-3,4.1-5.1,5.6s-3.1-1.2-4.3-2.4L251,231.2c-5.6-5.6-11.3-11.2-16.8-16.9a7,7,0,0,0-5.7-2.4c-4,.2-7.8,0-12.1.1a18.9,18.9,0,0,0,2.3,2.5L281.1,277a11.4,11.4,0,0,1,2.9,4c-5.6,4.9-10.8,10.2-16.7,14.7a12.7,12.7,0,0,1-4.2-3.1l-46.9-47a6.2,6.2,0,0,0-1.9-1.6c-.6,1.1-.3,2.2-.3,3.3v69.8C214.2,318.8,214.4,320.7,212.9,322.3Z" transform="translate(-12.8 -10)"/><path class="cls-2" d="M150.9,326.6c-7.1-1.2-14.3-2.1-21.1-4.3-1.5-1.5-1.3-3.4-1.3-5.3V247.2a12.5,12.5,0,0,0-.1-3.3,4.4,4.4,0,0,0-2.1,1.7Q102.8,269,79.4,292.5a11.8,11.8,0,0,1-4.2,3.1c-1.6-1.9-4.2-2.9-5.5-5s1.2-3.2,2.4-4.4l36.3-36.4c5.9-5.9,11.7-11.9,17.7-17.7a6.9,6.9,0,0,0,2.4-6c-.1-3.8,0-7.7-.1-11.8a14.3,14.3,0,0,0-2.5,2.4c-20.8,20.8-41.7,41.6-62.4,62.4a11.4,11.4,0,0,1-4,2.9c-4.9-5.6-10.2-10.8-14.7-16.7a14.3,14.3,0,0,1,3.1-4.2l46.9-46.9a5.3,5.3,0,0,0,1.6-2c-1-.6-2.2-.3-3.3-.3H23.5c-1.9,0-3.8.3-5.3-1.3-2.2-6.8-3.1-14.1-4.3-21.1l4,.2c43,0,86,.1,129-.1,3,0,3.8.7,3.7,3.7V322.6Z" transform="translate(-12.8 -10)"/><path class="cls-2" d="M45,72.8c1.7-1.9,2.9-4.2,5-5.6s3.3,1.4,4.6,2.6l37.5,37.4c5.5,5.6,11.1,11.1,16.5,16.7a6.8,6.8,0,0,0,5.5,2.2h12.6a9.7,9.7,0,0,0-2.3-2.6L62.5,61.4c-1.3-1.3-3-2.3-2.8-4.5s4.5-5,6.9-7.2,5.8-4.9,8.7-7.3a14.3,14.3,0,0,1,4.2,3.1l46.8,47c.6.5,1.2,1.2,1.9,1.7a6.8,6.8,0,0,0,.3-3.4V21c0-1.9-.2-3.8,1.3-5.2,6.8-2.3,14-3.2,21.1-4.4-.1,1.4-.2,2.7-.2,4,0,43.1-.1,86.2.1,129.3,0,3-.7,3.8-3.7,3.7H18.1l-4,.2c1.2-7.1,2.1-14.3,4.3-21.2,1.5-1.5,3.4-1.3,5.2-1.3h73a5.8,5.8,0,0,0-1.9-2.4L47.9,76.7A10.2,10.2,0,0,1,45,72.8Z" transform="translate(-12.8 -10)"/><path class="cls-2" d="M267.4,42.4c1.7,1.8,4.1,3,5.5,5.1s-1.4,3.3-2.6,4.6C257.9,64.6,245.4,77,233,89.6c-5.6,5.5-11,11.1-16.7,16.6a6.8,6.8,0,0,0-2.2,5.5c.1,4.1,0,8.2,0,12.6a11.6,11.6,0,0,0,2.6-2.2q30.9-31,61.9-62c1.3-1.3,2.4-3,4.5-2.8,4.5,3.2,7.8,7.5,11.3,11.6l3.3,4a11.2,11.2,0,0,1-3.4,4.4c-15.5,15.5-31,31.1-46.6,46.6-.5.6-1.3,1.1-1.6,2s2.2.3,3.3.3H319c1.9,0,3.8-.2,5.3,1.3,2.2,6.8,3.1,14.1,4.3,21.2-1.4-.1-2.6-.3-4-.3-43,0-86-.1-129,.1-3,0-3.8-.7-3.7-3.7V15.5c0-1.3-.1-2.6-.1-4a151.8,151.8,0,0,1,21.1,4.3c1.5,1.5,1.3,3.4,1.3,5.3V90.9c0,1-.1,2.1,0,3.3s1.7-1.2,2.4-1.8l46.8-46.9A9.3,9.3,0,0,1,267.4,42.4Z" transform="translate(-12.8 -10)"/><path class="cls-3" d="M267.4,42.4c.3,1.1-.4,1.5-1,2.1C249,62,231.5,79.4,214.2,96.9l-.9.7c-.8-.7-.5-1.5-.5-2.1V17.4c0-.5.1-1.1.1-1.6a155,155,0,0,1,51.6,24.8C265.5,41.1,266.4,41.8,267.4,42.4Z" transform="translate(-12.8 -10)"/><path class="cls-3" d="M212.9,322.3c0-15.1-.1-30.2-.1-45.3V243.5c0-.9-.3-2,.3-2.9s1.5,1,2.1,1.7l50.5,50.6c.8.7,2.1,1.2,1.7,2.7a170.1,170.1,0,0,1-33.8,19.6A158.1,158.1,0,0,1,212.9,322.3Z" transform="translate(-12.8 -10)"/><path class="cls-3" d="M324.3,127.4H245.7c-1,0-2,.3-3.2-.4l2.1-2.3,50.3-50.4c.7-.7,1.2-2,2.7-1.6,8.2,11.5,15.6,23.5,20.7,36.7A144.7,144.7,0,0,1,324.3,127.4Z" transform="translate(-12.8 -10)"/><path class="cls-3" d="M297.7,265.2c-1,.4-1.5-.4-2.1-1l-52.2-52.4a3.6,3.6,0,0,1-.8-.9c.8-.7,1.6-.4,2.2-.4h79.5a155.7,155.7,0,0,1-24.7,51.8Z" transform="translate(-12.8 -10)"/><path class="cls-1" d="M283.1,57.2l-2.5,2.3-64.9,65.1a22.6,22.6,0,0,0-2,2.6l-.9-.4V108.7c0-1.3,1.1-1.9,1.9-2.6l56.2-56.4,2.1-2.2C276.8,50.2,280.6,53,283.1,57.2Z" transform="translate(-12.8 -10)"/><path class="cls-1" d="M284.1,280.8c-1,.4-1.5-.4-2.1-1l-68-68-.9-1.3c5,0,9.5.2,14.1-.1s6.2,1,8.8,3.7c18.1,18.3,36.3,36.4,54.5,54.6.7.7,1.5,1.3,2.2,2.1C290.4,274.6,286.8,277.4,284.1,280.8Z" transform="translate(-12.8 -10)"/><path class="cls-3" d="M18.4,210.6H97a5.4,5.4,0,0,1,3.2.4c-.7.9-1.5,1.6-2.1,2.3L48,263.3c-.8.9-1.3,2.3-2.9,1.9-9.5-13.4-17.7-27.4-23.1-43.1C20.7,218.3,19.5,214.4,18.4,210.6Z" transform="translate(-12.8 -10)"/><path class="cls-3" d="M75.3,295.5c-.4-1,.4-1.5,1-2.1l52.2-52.3.9-.8a2.7,2.7,0,0,1,.5,2.2v78.1c0,.5-.1,1-.1,1.5a153,153,0,0,1-50.9-24.2C77.7,297.2,76.5,296.3,75.3,295.5Z" transform="translate(-12.8 -10)"/><path class="cls-1" d="M59.7,281.9c-.4-1,.4-1.5,1-2.1l68.2-68.3.7-.4c.6,1.1.3,2.4.3,3.6,0,5,1.4,10.7-.5,14.9s-6.8,7.6-10.4,11.2L71.8,288.1l-2.1,2.3C65.9,288.2,63.2,284.7,59.7,281.9Z" transform="translate(-12.8 -10)"/><path class="cls-3" d="M45,72.8c1-.4,1.5.4,2.1.9l52.2,52.4.7.9c-.7.7-1.5.5-2.2.5H18.4c4.9-19,13.5-36.2,24.9-52.1Z" transform="translate(-12.8 -10)"/><path class="cls-3" d="M129.8,15.8c0,14.6.1,29.3.1,44V94.5c0,1,.3,2-.3,3a4.1,4.1,0,0,1-2.1-1.7C110.6,79,93.7,62,76.9,45.1c-.7-.7-2-1.2-1.7-2.7,12.4-8.9,25.5-16.7,39.9-22A131.4,131.4,0,0,1,129.8,15.8Z" transform="translate(-12.8 -10)"/><path class="cls-1" d="M59.8,57c3.4,3.4,6.7,7,10.1,10.4l57.3,57.3a10.5,10.5,0,0,0,2.5,1.8,2.6,2.6,0,0,1-.5.9H110.9c-1.1,0-1.6-1.1-2.3-1.8L52.3,69.2,50,67.1C52.9,63.3,55.7,59.6,59.8,57Z" transform="translate(-12.8 -10)"/></svg>