<?xml version="1.0" encoding="utf-8"?>
<!-- Generator: Adobe Illustrator 24.1.3, SVG Export Plug-In . SVG Version: 6.00 Build 0)  -->
<svg version="1.1" id="Layer_1" xmlns="http://www.w3.org/2000/svg" xmlns:xlink="http://www.w3.org/1999/xlink" x="0px" y="0px"
	 viewBox="0 0 566.9 566.9" style="enable-background:new 0 0 566.9 566.9;" xml:space="preserve">
<style type="text/css">
	.st0{clip-path:url(#SVGID_2_);}
	.st1{fill:#FFFFFF;}
	.st2{clip-path:url(#SVGID_2_);fill:#FFFFFF;}
	.st3{clip-path:url(#SVGID_4_);}
	.st4{fill:#FEFEFE;}
	.st5{fill:#12BFF1;}
	.st6{fill:#25C2F3;}
	.st7{fill:#00AEEE;}
	.st8{fill:#0097DB;}
	.st9{fill:#019ADD;}
	.st10{fill:#01B2EF;}
	.st11{fill:#02B9F0;}
	.st12{fill:#01A8E8;}
	.st13{fill:#029DDF;}
	.st14{fill:#01A2E3;}
	.st15{fill:#30C3F2;}
	.st16{fill:#02ACEB;}
	.st17{fill:#02B6EF;}
	.st18{fill:#05BBEF;}
	.st19{fill:#01AFEE;}
	.st20{fill:#02A3E4;}
	.st21{fill:#02B3EE;}
	.st22{fill:#02A8E8;}
	.st23{fill:#03A0E0;}
	.st24{fill:#029CDF;}
	.st25{fill:#03AAEA;}
	.st26{fill:#04BCF0;}
	.st27{clip-path:url(#SVGID_4_);fill:#FFFFFF;}
</style>
<g>
	<g>
		<defs>
			<path id="SVGID_1_" d="M44.5,281.7C4.6,230.1,4.5,157,46,106.6c1.5-1.8,3-3.6,4.6-5.3c56.7-64,164.6-17.7,164.6-17.7
				s24.4,11,63.9,76c0,0,50.3-61.1,123.3-63.1c31-0.8,58.3,10.7,79.5,24.3c34.8,22.3,60.6,57,68.2,97.7c3,16.2,3.5,34.2-1.9,52
				C532,323.6,418.5,427.1,418.5,427.1L304.3,543.2L168,410.1C168,410.1,90.9,341.6,44.5,281.7z"/>
		</defs>
		<clipPath id="SVGID_2_">
			<use xlink:href="#SVGID_1_"  style="overflow:visible;"/>
		</clipPath>
		<g class="st0">
			<path class="st1" d="M6.7,179.3c0-41,0-82.1,0-123.1c177.8,0,355.7,0.3,533.5-0.5c16-0.1,19.3,3.2,19.2,19.2
				c-0.8,151.7-0.8,303.4,0,455c0.1,16-3.2,19.4-19.2,19.2c-81.3-1-162.6-0.5-244-0.5c61-106.6,326.5-234.5,227.6-383.2
				c-47.7-66.1-141.3-89.3-207.1-34.9c-17.5,8.7-37.4,47.7-52.3,15C204.3,28,46.3,55.6,13.7,179.3C11.3,181,9,181,6.7,179.3z"/>
			<path class="st1" d="M296.1,543.8c0,1.6,0.1,3.3,0.1,4.9c-91.2,0-182.3-0.3-273.5,0.4c-13.4,0.1-16.5-3-16.4-16.4
				c0.6-103.5,0.4-207,0.4-310.5c16.7,2.8,13.1,19.2,19.6,28.9C69.1,319.8,138.8,368.8,193,428.9C211,453.4,300.7,522.4,296.1,543.8
				z"/>
			<path class="st1" d="M22.2,254.6c-9.7-8.7-4.7-24.3-15.5-32.5c0-3.6,0-7.1,0-10.7c41.1-43.1,81.2-87.2,121.5-131
				c13.1-17.6,38.3-20.3,56.8-9.1c-5.6,21.9-39.4,31.5-37.2,54.6c5.4,2.2,11.9,3.5,9.2,11.8c-51,15-60.3,18.4-72.9,72.3
				c-6.5,6.3-11.5-2.4-12.3-8.4c-2.2-6.7-2.9,0.7-2.9,0.8C53,219.5,36.6,236.6,22.2,254.6z"/>
			<path class="st1" d="M168,66.5C119.4,70.4,53.1,193.9,6.7,211.4c0-10.7,0-21.4,0-32.1c1.1-1.5,2.4-1.7,3.8-0.5
				C54.3,138.4,96.9,42.9,168,66.5z"/>
			<path class="st1" d="M312.6,127.1c31.5-31.8,76.2-34.3,118.9-27.6c-58.7,70.5-119.1,136.6-185,200.2c-14.5,14.6-27.5,13.7-40.9-1
				c-19.7-14.5-19.2-39.7-0.2-54.1C239,203.8,281.7,169.2,312.6,127.1z"/>
			<path class="st1" d="M296.1,543.8c-5.7-7.1-11.4-14.3-17.1-21.4c42.4-75.1,121.1-128.3,175.2-196.4
				c24.1-27.2,45.6-57.5,77.4-77.1c10.4-6.4,6.9-22.5,20.1-26.3c2.3,42.3-8.6,81.5-37.9,111.7c-66.1,68.5-134.5,134.9-202,202.2
				C307.6,540.9,303.6,546.2,296.1,543.8z"/>
			<path class="st1" d="M551.8,222.6c-7.5,7.8-1.5,19.3-11.4,28.2c-93.9,83.9-173.8,181.3-261.3,271.5c-7.1-3.6-12.2-9.2-16.1-16
				c-2.2-31.8,31.4-41.9,40.6-67c47.9-71.9,134.2-116.4,173.1-195.4c28.9-3.8,36.1-51.2,70.3-37.7
				C548.5,211.7,550.2,217.2,551.8,222.6z"/>
			<path class="st1" d="M312.6,127.1c8.4,17.6-8.1,22.5-16.6,30.5c-34.5,38-79.9,72.7-102,118.6c-20.2-2.5-24.3-15.2-13.3-29.1
				c24.8-32.5,23.6-74.9,60-99c32.3-33.6,27.8,27.2,50.2-1.8C296.7,138.8,305.3,133.5,312.6,127.1z"/>
			<path class="st1" d="M156.8,135.6c-4.1-5.5-10.2-4.5-15.9-4.8C154.1,107.7,166.6,84,195,76c18.1,6,35.9,12.6,47.3,29.4
				c-0.8,23.1-26.8,50.4-50,52.5C179.8,151.5,165.2,148.6,156.8,135.6z"/>
			<path class="st1" d="M457.7,103.9c17.8,1.6,26.5,16.4,38.2,26.6c-12.8,18.8-27.3,36.1-44.8,50.8c-16.2-1.5-32.3-6.6-44.8-17.3
				C412.6,135.3,427,112.3,457.7,103.9z"/>
			<path class="st1" d="M546.9,206.2c-29.8-5.6-55.6,57.5-66.9,37.2c-11.7-10.5-11.5-24.4-10.7-38.4c20.7-13,28.7-43,58.5-43.9
				C539.3,174.1,544.5,189.6,546.9,206.2z"/>
			<path class="st1" d="M527.8,161.2c-15,9.7-30,19.2-38.4,36.1c-3.9,7.8-11.5,5.8-18.3,4c-45.9-9.8,3.5-58.9,24.9-70.8
				C507.2,140.1,522.8,145.2,527.8,161.2z"/>
			<path class="st1" d="M124.2,66.3c-6.5,13.4-20.2,19.6-30.8,27.9c-31.4,24.8-46.2,65.4-83,84.5C25.5,113.4,62.7,76.6,124.2,66.3z"
				/>
			<path class="st1" d="M457.7,103.9c-37.5,24.6-47.8,82.1-101.7,77.7c15.8-32.7,44.5-54.2,72.1-82.9c-21.4,0-39.5,0-57.6,0
				C400.3,88.8,429.4,90.4,457.7,103.9z"/>
			<path class="st1" d="M192.3,153.3c25.6-6.7,37.8-27.3,50-47.9c12.4,9.5,20.7,21.9,25.9,36.4c-26.8-1.8-36.7,37.5-57.9,42.8
				C198.2,177.6,190,168.5,192.3,153.3z"/>
			<path class="st1" d="M195,76c-23,13.4-33.3,39.2-54.1,54.8C114.1,136.9,189.5,51.2,195,76z"/>
			<path class="st1" d="M155.4,399.4c-17.7-14.4-33.9-30.5-48.4-48.1c8.7-24.5,25.3-41.4,49.4-51.2
				C206,312.6,200.7,381.3,155.4,399.4z"/>
			<path class="st1" d="M76.3,206.1c13.2,14.9,29.5,27.5,34.2,48.2c-14.2,19.2-28.9,37.9-45.4,55.2c-18.7-14.8-35-31.5-42.8-54.8
				C43.7,246,62.5,202.6,76.3,206.1z"/>
			<path class="st1" d="M225.1,469c-14-11-26.6-23.5-37.5-37.5c11.2-22.7,32.5-35.4,50.7-51.3c15.5,2.8,17.2,21.7,27.5,31.2
				c3.7,5.1,7.7,11.5,3.3,16.8C256.3,443.6,247.5,463.7,225.1,469z"/>
			<path class="st1" d="M155.1,302.4c-16,16.3-32.1,32.6-48.1,48.9c-10.5-7.4-19.4-16.3-26.8-26.8c8.6-25.1,26-41.6,49.9-52.1
				C143.9,278,158.6,282.7,155.1,302.4z"/>
			<path class="st1" d="M236.6,382.8c-12.4,20.1-30.6,34.4-48.9,48.7c-8.9-5.4-15.8-12.8-21.6-21.3c12.1-21.6,26.6-40.9,49.8-52
				C228.1,361.9,239.3,366.4,236.6,382.8z"/>
			<path class="st1" d="M129,275.8c-16.3,16.3-32.5,32.5-48.8,48.8c-5.1-5-10.2-10.1-15.2-15.1c6.6-24.2,24.2-39.9,42.5-55.1
				C123.4,252.7,130.8,259.7,129,275.8z"/>
			<path class="st1" d="M225.1,469c20.8-24.1,55.5-41.9,22.7-75c24.9,3.6,36.9,20.8,44.9,42.3c-14.8,18.7-26.9,40.2-51.4,48.8
				C236,479.7,230.5,474.3,225.1,469z"/>
			<path class="st1" d="M241.4,485c15.9-11.5,45.7-67.4,65.6-42.9c1,3.2,4.1,7.3,0.3,9.5c-21.5,13-32.6,34.1-44.3,54.8
				C254,501,247.2,493.5,241.4,485z"/>
			<path class="st1" d="M215.1,361.4c-18.7,13.9-28.5,36.8-49.1,48.8c-3.5-3.6-7.1-7.2-10.6-10.7c10.1-14,18.9-29.2,30.7-41.6
				c11.3-11.9-3.5-18.6-2.6-28C203.6,330.7,213.9,341.5,215.1,361.4z"/>
			<path class="st1" d="M215.1,361.4c-40.9-53-106.7-87.6-134-149.9c2.2-53.8,22.1-73.8,75.7-75.8c49.3,9.1,73.4,75.1,33.5,109.5
				c-16.5,13.7-11.9,22.5,3.7,31.1c30.6,37.1,30.7,37.1,63.3,4.5c49-39.7,83.6-111.3,151.5-117.8c68,8.2,95.6,91,41,135.3
				c-48,47.5-95.2,95.8-142.7,143.8c-22.2,0.5-49.1-48.1-70.4-59.3C231.2,373.8,223.8,367,215.1,361.4z"/>
			<path class="st1" d="M76.3,206.1c-17.7,15.7-21.7,46.6-52.7,47.7c-1.6-28,35.5-43.5,52.5-62.1C78.9,194.3,75.2,200.6,76.3,206.1z
				"/>
		</g>
		<path class="st2" d="M484.6,241.4c0,0-7.1,34.6-19.2,49c-1.1,1.2-3,3.7-4.2,4.9L304.1,452L139.6,294.2c-0.9-0.9-1.9-1.7-2.9-2.5
			c-11.6-9.2-87.6-72.2-50.8-125.7c39.7-57.9,92-26.7,92-26.7s63.2,44.7,27.1,90.1l-23,28.5c0,0,34.6,44.7,41.6,43.2
			c5.8-1.3,80.1-76,104.6-100.8c5.6-5.7,11.9-10.6,18.7-14.7c17.6-10.5,51.7-29.2,67.2-25.9c22.7,4.9,51.8,22.2,62.4,46.3
			C487,230.1,484.6,241.4,484.6,241.4z"/>
	</g>
	<g>
		<defs>
			<path id="SVGID_3_" d="M44.5,281.7C4.6,230.1,4.5,157,46,106.6c1.5-1.8,3-3.6,4.6-5.3c56.7-64,164.6-17.7,164.6-17.7
				s24.4,11,63.9,76c0,0,50.3-61.1,123.3-63.1c31-0.8,58.3,10.7,79.5,24.3c34.8,22.3,60.6,57,68.2,97.7c3,16.2,3.5,34.2-1.9,52
				C532,323.6,418.5,427.1,418.5,427.1L304.3,543.2L168,410.1C168,410.1,90.9,341.6,44.5,281.7z"/>
		</defs>
		<clipPath id="SVGID_4_">
			<use xlink:href="#SVGID_3_"  style="overflow:visible;"/>
		</clipPath>
		<g class="st3">
			<path class="st4" d="M6.7,179.3c0-41,0-82.1,0-123.1c177.8,0,355.7,0.3,533.5-0.5c16-0.1,19.3,3.2,19.2,19.2
				c-0.8,151.7-0.8,303.4,0,455c0.1,16-3.2,19.4-19.2,19.2c-81.3-1-162.6-0.5-244-0.5c61-106.6,326.5-234.5,227.6-383.2
				c-47.7-66.1-141.3-89.3-207.1-34.9c-17.5,8.7-37.4,47.7-52.3,15C204.3,28,46.3,55.6,13.7,179.3C11.3,181,9,181,6.7,179.3z"/>
			<path class="st4" d="M296.1,543.8c0,1.6,0.1,3.3,0.1,4.9c-91.2,0-182.3-0.3-273.5,0.4c-13.4,0.1-16.5-3-16.4-16.4
				c0.6-103.5,0.4-207,0.4-310.5c16.7,2.8,13.1,19.2,19.6,28.9C69.1,319.8,138.8,368.8,193,428.9C211,453.4,300.7,522.4,296.1,543.8
				z"/>
			<path class="st5" d="M22.2,254.6c-9.7-8.7-4.7-24.3-15.5-32.5c0-3.6,0-7.1,0-10.7c41.1-43.1,81.2-87.2,121.5-131
				c13.1-17.6,38.3-20.3,56.8-9.1c-5.6,21.9-39.4,31.5-37.2,54.6c5.4,2.2,11.9,3.5,9.2,11.8c-51,15-60.3,18.4-72.9,72.3
				c-6.5,6.3-11.5-2.4-12.3-8.4c-2.2-6.7-2.9,0.7-2.9,0.8C53,219.5,36.6,236.6,22.2,254.6z"/>
			<path class="st6" d="M168,66.5C119.4,70.4,53.1,193.9,6.7,211.4c0-10.7,0-21.4,0-32.1c1.1-1.5,2.4-1.7,3.8-0.5
				C54.3,138.4,96.9,42.9,168,66.5z"/>
			<path class="st7" d="M312.6,127.1c31.5-31.8,76.2-34.3,118.9-27.6c-58.7,70.5-119.1,136.6-185,200.2c-14.5,14.6-27.5,13.7-40.9-1
				c-19.7-14.5-19.2-39.7-0.2-54.1C239,203.8,281.7,169.2,312.6,127.1z"/>
			<path class="st8" d="M296.1,543.8c-5.7-7.1-11.4-14.3-17.1-21.4c42.4-75.1,121.1-128.3,175.2-196.4
				c24.1-27.2,45.6-57.5,77.4-77.1c10.4-6.4,6.9-22.5,20.1-26.3c2.3,42.3-8.6,81.5-37.9,111.7c-66.1,68.5-134.5,134.9-202,202.2
				C307.6,540.9,303.6,546.2,296.1,543.8z"/>
			<path class="st9" d="M551.8,222.6c-7.5,7.8-1.5,19.3-11.4,28.2c-93.9,83.9-173.8,181.3-261.3,271.5c-7.1-3.6-12.2-9.2-16.1-16
				c-2.2-31.8,31.4-41.9,40.6-67c47.9-71.9,134.2-116.4,173.1-195.4c28.9-3.8,36.1-51.2,70.3-37.7
				C548.5,211.7,550.2,217.2,551.8,222.6z"/>
			<path class="st10" d="M312.6,127.1c8.4,17.6-8.1,22.5-16.6,30.5c-34.5,38-79.9,72.7-102,118.6c-20.2-2.5-24.3-15.2-13.3-29.1
				c24.8-32.5,23.6-74.9,60-99c32.3-33.6,27.8,27.2,50.2-1.8C296.7,138.8,305.3,133.5,312.6,127.1z"/>
			<path class="st11" d="M156.8,135.6c-4.1-5.5-10.2-4.5-15.9-4.8C154.1,107.7,166.6,84,195,76c18.1,6,35.9,12.6,47.3,29.4
				c-0.8,23.1-26.8,50.4-50,52.5C179.8,151.5,165.2,148.6,156.8,135.6z"/>
			<path class="st12" d="M457.7,103.9c17.8,1.6,26.5,16.4,38.2,26.6c-12.8,18.8-27.3,36.1-44.8,50.8c-16.2-1.5-32.3-6.6-44.8-17.3
				C412.6,135.3,427,112.3,457.7,103.9z"/>
			<path class="st13" d="M546.9,206.2c-29.8-5.6-55.6,57.5-66.9,37.2c-11.7-10.5-11.5-24.4-10.7-38.4c20.7-13,28.7-43,58.5-43.9
				C539.3,174.1,544.5,189.6,546.9,206.2z"/>
			<path class="st14" d="M527.8,161.2c-15,9.7-30,19.2-38.4,36.1c-3.9,7.8-11.5,5.8-18.3,4c-45.9-9.8,3.5-58.9,24.9-70.8
				C507.2,140.1,522.8,145.2,527.8,161.2z"/>
			<path class="st15" d="M124.2,66.3c-6.5,13.4-20.2,19.6-30.8,27.9c-31.4,24.8-46.2,65.4-83,84.5C25.5,113.4,62.7,76.6,124.2,66.3z
				"/>
			<path class="st16" d="M457.7,103.9c-37.5,24.6-47.8,82.1-101.7,77.7c15.8-32.7,44.5-54.2,72.1-82.9c-21.4,0-39.5,0-57.6,0
				C400.3,88.8,429.4,90.4,457.7,103.9z"/>
			<path class="st17" d="M192.3,153.3c25.6-6.7,37.8-27.3,50-47.9c12.4,9.5,20.7,21.9,25.9,36.4c-26.8-1.8-36.7,37.5-57.9,42.8
				C198.2,177.6,190,168.5,192.3,153.3z"/>
			<path class="st18" d="M195,76c-23,13.4-33.3,39.2-54.1,54.8C114.1,136.9,189.5,51.2,195,76z"/>
			<path class="st19" d="M155.4,399.4c-17.7-14.4-33.9-30.5-48.4-48.1c8.7-24.5,25.3-41.4,49.4-51.2
				C206,312.6,200.7,381.3,155.4,399.4z"/>
			<path class="st11" d="M76.3,206.1c13.2,14.9,29.5,27.5,34.2,48.2c-14.2,19.2-28.9,37.9-45.4,55.2c-18.7-14.8-35-31.5-42.8-54.8
				C43.7,246,62.5,202.6,76.3,206.1z"/>
			<path class="st20" d="M225.1,469c-14-11-26.6-23.5-37.5-37.5c11.2-22.7,32.5-35.4,50.7-51.3c15.5,2.8,17.2,21.7,27.5,31.2
				c3.7,5.1,7.7,11.5,3.3,16.8C256.3,443.6,247.5,463.7,225.1,469z"/>
			<path class="st21" d="M155.1,302.4c-16,16.3-32.1,32.6-48.1,48.9c-10.5-7.4-19.4-16.3-26.8-26.8c8.6-25.1,26-41.6,49.9-52.1
				C143.9,278,158.6,282.7,155.1,302.4z"/>
			<path class="st22" d="M236.6,382.8c-12.4,20.1-30.6,34.4-48.9,48.7c-8.9-5.4-15.8-12.8-21.6-21.3c12.1-21.6,26.6-40.9,49.8-52
				C228.1,361.9,239.3,366.4,236.6,382.8z"/>
			<path class="st17" d="M129,275.8c-16.3,16.3-32.5,32.5-48.8,48.8c-5.1-5-10.2-10.1-15.2-15.1c6.6-24.2,24.2-39.9,42.5-55.1
				C123.4,252.7,130.8,259.7,129,275.8z"/>
			<path class="st23" d="M225.1,469c20.8-24.1,55.5-41.9,22.7-75c24.9,3.6,36.9,20.8,44.9,42.3c-14.8,18.7-26.9,40.2-51.4,48.8
				C236,479.7,230.5,474.3,225.1,469z"/>
			<path class="st24" d="M241.4,485c15.9-11.5,45.7-67.4,65.6-42.9c1,3.2,4.1,7.3,0.3,9.5c-21.5,13-32.6,34.1-44.3,54.8
				C254,501,247.2,493.5,241.4,485z"/>
			<path class="st25" d="M215.1,361.4c-18.7,13.9-28.5,36.8-49.1,48.8c-3.5-3.6-7.1-7.2-10.6-10.7c10.1-14,18.9-29.2,30.7-41.6
				c11.3-11.9-3.5-18.6-2.6-28C203.6,330.7,213.9,341.5,215.1,361.4z"/>
			<path class="st4" d="M215.1,361.4c-40.9-53-106.7-87.6-134-149.9c2.2-53.8,22.1-73.8,75.7-75.8c49.3,9.1,73.4,75.1,33.5,109.5
				c-16.5,13.7-11.9,22.5,3.7,31.1c30.6,37.1,30.7,37.1,63.3,4.5c49-39.7,83.6-111.3,151.5-117.8c68,8.2,95.6,91,41,135.3
				c-48,47.5-95.2,95.8-142.7,143.8c-22.2,0.5-49.1-48.1-70.4-59.3C231.2,373.8,223.8,367,215.1,361.4z"/>
			<path class="st26" d="M76.3,206.1c-17.7,15.7-21.7,46.6-52.7,47.7c-1.6-28,35.5-43.5,52.5-62.1C78.9,194.3,75.2,200.6,76.3,206.1
				z"/>
		</g>
		<path class="st27" d="M484.6,241.4c0,0-7.1,34.6-19.2,49c-1.1,1.2-3,3.7-4.2,4.9L304.1,452L139.6,294.2c-0.9-0.9-1.9-1.7-2.9-2.5
			c-11.6-9.2-87.6-72.2-50.8-125.7c39.7-57.9,92-26.7,92-26.7s63.2,44.7,27.1,90.1l-23,28.5c0,0,34.6,44.7,41.6,43.2
			c5.8-1.3,80.1-76,104.6-100.8c5.6-5.7,11.9-10.6,18.7-14.7c17.6-10.5,51.7-29.2,67.2-25.9c22.7,4.9,51.8,22.2,62.4,46.3
			C487,230.1,484.6,241.4,484.6,241.4z"/>
	</g>
	<g>
		<defs>
			<path id="SVGID_5_" d="M44.5,281.7C4.6,230.1,4.5,157,46,106.6c1.5-1.8,3-3.6,4.6-5.3c56.7-64,164.6-17.7,164.6-17.7
				s24.4,11,63.9,76c0,0,50.3-61.1,123.3-63.1c31-0.8,58.3,10.7,79.5,24.3c34.8,22.3,60.6,57,68.2,97.7c3,16.2,3.5,34.2-1.9,52
				C532,323.6,418.5,427.1,418.5,427.1L304.3,543.2L168,410.1C168,410.1,90.9,341.6,44.5,281.7z"/>
		</defs>
		<clipPath id="SVGID_6_">
			<use xlink:href="#SVGID_5_"  style="overflow:visible;"/>
		</clipPath>
	</g>
</g>
</svg>
