<svg xmlns="http://www.w3.org/2000/svg" viewBox="0 0 48.8 58.4"><defs><style>.cls-1{fill:#e66454;}.cls-2{fill:#dbe0e3;}.cls-3{fill:#fff;}.cls-4{fill:#e4ecf1;}</style></defs><g id="Layer_2" data-name="Layer 2"><g id="Layer_1-2" data-name="Layer 1"><path class="cls-1" d="M24.1,58.4l-1-.9L7.3,41.8A25.4,25.4,0,0,1,1,31.1,23.2,23.2,0,0,1,.1,22,23.6,23.6,0,0,1,7.4,6.9,23.4,23.4,0,0,1,20.7.3C29.5-.9,36.9,1.8,42.8,8.4a21.9,21.9,0,0,1,5.5,11.3,23.8,23.8,0,0,1-6.7,21.9c-5.3,5.5-10.8,10.8-16.2,16.2l-.7.6Z"/><path class="cls-2" d="M7,24.4A17.4,17.4,0,1,1,24.5,41.7h-.1A17.3,17.3,0,0,1,7,24.4Z"/><path d="M35.4,33.9h1.1a.2.2,0,0,1,.2.2h0c0,.6,0,.6-.6.6h-24V34H35.4Z"/><path d="M21.5,33.9H19.6a.4.4,0,0,1-.1-.3V26.1c0-.3,0-.4-.4-.4h.2c.3,0,.3,0,.3-.3V20.9h9.5a.4.4,0,0,1,.1.3v4.3c0,.2,0,.2.2.2h.2c-.3,0-.3.1-.4.4a3.8,3.8,0,0,1,0,1.5c.1,1.7,0,3.3,0,4.9v1.1c0,.1.1.2,0,.3H27.3c-.1-.1-.1-.2-.1-.4V27.8h0c0-.4,0-.4-.3-.4H25.1c-.3,0-.4,0-.4.4v5.8c0,.1.1.3-.1.4h-.5c-.1-.1,0-.3,0-.4V27.9c0-.5,0-.5-.5-.5H22c-.4,0-.4,0-.4.4v5.8A.4.4,0,0,1,21.5,33.9Z"/><path d="M29.1,20.8H19.6l1-1,3.3-3.5c.2-.1.2-.2.2-.3V13.2c0-.1,0-.2-.2-.2h-1c-.2,0-.2-.1-.2-.3h0c0-.3,0-.4.3-.3h.9c.2,0,.2-.1.2-.2V11.1c0-.2.1-.3.2-.3h.2a.2.2,0,0,1,.2.2h0v1.1c0,.2,0,.3.2.3h1c.1,0,.2,0,.2.2s-.1,0,0,.1a.3.3,0,0,1-.3.3h-.9c-.2,0-.2.1-.2.2V16c0,.2,0,.3.1.4l4.3,4.4Z"/><path d="M29.2,33.9V27.6h5.9c.1,0,.2-.1.3,0v6.3Z"/><path d="M19.6,27.6v6.3H13.4V27.6Z"/><path d="M35.4,27.6H29.2V25.8c0-.2.1-.1.2-.1h6Z"/><path d="M19.6,27.6H13.4V25.7h5.8c.4,0,.4-.1.4.4Z"/><path class="cls-3" d="M21.5,33.9V27.5c0-.2,0-.3.3-.3h2.1c.2,0,.2.1.2.3v6.4Z"/><path class="cls-3" d="M24.6,33.9c0-2.1.1-4.2.1-6.4,0-.3,0-.3.3-.3h2c.3,0,.3.1.3.3v6.4Z"/><path class="cls-3" d="M23.9,30.7v.5h-.2a3.4,3.4,0,0,0-.1-1h.2c.1,0,.1.1.1.2Z"/><path class="cls-3" d="M24.9,30.7v-.5h.3v1h-.3Z"/><rect class="cls-3" x="23.2" y="21.6" width="2.3" height="4.6"/><rect class="cls-4" x="15.7" y="28.3" width="2.7" height="2.3"/><rect class="cls-4" x="15.7" y="31" width="2.7" height="2.3"/><rect class="cls-4" x="30.9" y="28.3" width="2.7" height="2.3"/><rect class="cls-4" x="30.9" y="31" width="2.7" height="2.3"/></g></g></svg>