<?xml version="1.0" encoding="utf-8"?>
<!-- Generator: Adobe Illustrator 24.1.3, SVG Export Plug-In . SVG Version: 6.00 Build 0)  -->
<svg version="1.1" id="Layer_1" xmlns="http://www.w3.org/2000/svg" xmlns:xlink="http://www.w3.org/1999/xlink" x="0px" y="0px"
	 viewBox="0 0 566.9 566.9" style="enable-background:new 0 0 566.9 566.9;" xml:space="preserve">
<style type="text/css">
	.st0{fill:#FFFFFF;}
</style>
<g>
	<path d="M445.6,348.4c1.5,1.1,3.1,1.9,4.4,3.2c3.1,2.9,3.9,6.7,2.6,10.6c-1.3,4.2-4.3,6.7-8.7,7.2c-2.2,0.3-4.5,0.2-6.7,0.2
		c-16.3,0-32.7,0-49,0c-1.3,0-2.7,0-4,0c-0.4,0.6-0.9,1.1-1.3,1.7c1.2,0.6,2.7,1,3.6,1.9c27.8,27.7,55.5,55.3,83.1,83.1
		c1.8,1.8,3.4,4.1,4.2,6.4c1.5,4.4-0.5,8.9-4.3,11.4c-3.8,2.5-8.8,2.3-12.6-0.7c-1.2-0.9-2.2-2-3.3-3.1
		c-27.3-27.3-54.5-54.5-81.8-81.8c-1-1-1.8-2.4-2.6-3.6c-0.5,0.2-0.9,0.5-1.4,0.7c0,1.3,0,2.5,0,3.8c0,17.7,0,35.4,0,53.1
		c0,7.2-3.9,11.8-10.1,12c-6.5,0.3-11.1-4.4-11.2-11.3c-0.1-15.6,0-31.2,0-46.8c0-11.6,0.2-23.2-0.1-34.8
		c-0.2-6.5,2.1-11.1,8.3-13.5C385.2,348.4,415.4,348.4,445.6,348.4z"/>
	<path d="M218.6,447.2c-2.3,4-5,7.4-10.2,7.6c-5.8,0.2-10.4-3.7-10.9-9.5c-0.2-2.5-0.2-5-0.2-7.5c0-16,0-31.9,0-47.9
		c0-1.3,0-2.7,0-5.1c-1.7,1.6-2.6,2.5-3.5,3.4c-27.5,27.5-55,55-82.6,82.5c-6.1,6.1-12.6,6.9-17.3,2c-4.6-4.8-3.8-11,2.2-17
		c27.4-27.4,54.9-54.9,82.3-82.3c1-1,2.2-1.7,3.3-2.5c-0.2-0.4-0.4-0.9-0.5-1.3c-1.2,0-2.5,0-3.7,0c-17.7,0-35.4,0.1-53.1,0
		c-8.2,0-13.3-5.4-12-12.6c0.8-4.3,3.9-6.7,7.4-8.7c30.2,0,60.4,0,90.6,0c4,1.5,6.7,4.3,8.2,8.2C218.6,386.8,218.6,417,218.6,447.2z
		"/>
	<path d="M218.6,212c-2.4,6.2-7,8.4-13.5,8.3c-27.1-0.2-54.1-0.1-81.2-0.1c-7.1,0-11.8-4.4-11.7-10.8c0.1-5.3,3.8-9.5,9.1-10.2
		c1.6-0.2,3.2-0.2,4.9-0.2c17,0,33.9,0,50.9,0c1.3,0,2.7,0,5.1,0c-1.6-1.6-2.5-2.6-3.4-3.5c-27.6-27.6-55.3-55.2-82.8-82.9
		c-2.2-2.2-4-5.4-4.7-8.5c-1-4.2,1.2-7.8,5.1-10c3.9-2.2,7.9-2,11.6,0.7c1.2,0.9,2.2,2,3.3,3c27.4,27.4,54.9,54.9,82.3,82.3
		c1,1,1.6,2.2,2.5,3.3c0.4-0.2,0.9-0.4,1.3-0.6c0-1.2,0-2.5,0-3.7c0-17.8-0.1-35.7,0-53.5c0-7.9,5.5-12.9,12.5-11.6
		c4.4,0.8,6.6,4,8.7,7.4C218.6,151.6,218.6,181.8,218.6,212z"/>
	<path class="st0" d="M91,467.7c1.5,4,4.3,6.7,8.2,8.2c-2.7,0-5.5,0-8.2,0C91,473.2,91,470.4,91,467.7z"/>
	<path d="M383.9,199.3c1.3,0,2.6,0,4,0c17.2,0,34.4,0,51.7,0c2.1,0,4.3,0.1,6.3,0.7c4.7,1.4,7.4,6.1,7,11.1
		c-0.4,4.8-4.4,8.7-9.3,9.3c-1,0.1-2,0.1-3,0.1c-27.2,0-54.4,0-81.6,0c-8.4,0-12.5-4.1-12.5-12.3c0-27.4,0-54.9,0-82.3
		c0-4.8,1.8-8.6,6.1-10.7c3.8-1.8,7.6-1.4,10.9,1.1c3.5,2.6,4.2,6.2,4.2,10.3c0,17.5,0,34.9,0,52.4c0,1.3,0,2.7,0,5.1
		c1.6-1.6,2.6-2.5,3.5-3.4c27.6-27.6,55.2-55.2,82.9-82.8c6.2-6.2,12.5-7,17.3-2c4.7,4.9,4,10.9-2.1,17
		c-27.6,27.6-55.2,55.2-82.9,82.8c-0.9,0.9-2.2,1.5-3.3,2.3C383.3,198.4,383.6,198.9,383.9,199.3z"/>
</g>
</svg>
