<svg id="Layer_1" data-name="Layer 1" xmlns="http://www.w3.org/2000/svg" xmlns:xlink="http://www.w3.org/1999/xlink" viewBox="0 0 256 256"><defs><style>.cls-1{fill:none;}.cls-2{clip-path:url(#clip-path);}.cls-3{fill:#005ea4;}.cls-4{fill:#fefefe;}.cls-5{fill:#eb2227;}.cls-6{fill:#f12023;}.cls-7{fill:#fdfefe;}.cls-8{fill:#f5f8fb;}.cls-9{fill:#b6b92e;}.cls-10{fill:#cdc71f;}</style><clipPath id="clip-path" transform="translate(-44.3 -35.8)"><circle class="cls-1" cx="172.3" cy="163.8" r="126.6"/></clipPath></defs><g class="cls-2"><path class="cls-3" d="M300.2,148.8v31c-1.7,7.6-.8,15.7-3.7,23.2-.9,2.6-2,4.9-5.1,5.3s-5.6.8-8.4.8H61.8c-2.9,0-5.7.1-8.5-.8s-4.1-2.8-5.1-5.3c-2.8-7-2.2-14.6-3.3-21.9-.1-.8.1-1.6-.5-2.3v-29c1.3-6,1.1-12.1,1.9-18.1a36,36,0,0,1,2.3-8.1c1.2-2.8,3.2-4.7,6.4-4.8,13.9-.4,27.8-.5,41.7,0a7,7,0,0,1,1.9.6c2.3.9,2.1,3,2.3,5,1.6,16.6,9.2,29.1,24.7,36.2a9.1,9.1,0,0,0,8.5,0c15.5-7.2,23.1-19.7,24.7-36.3.2-2,.1-4,2.5-4.9s5.2-.8,7.8-.8H283.7l5.5.2c3.7.2,6,2.1,7.3,5.7,2.5,7.1,2.4,14.6,3.2,22A4.7,4.7,0,0,0,300.2,148.8Z" transform="translate(-44.3 -35.8)"/><path class="cls-4" d="M300.2,148.8c-2.6-6.4-2.6-13.5-4.8-20-3-9.2-1.1-7.6-9.8-7.6-41.6-.1-83.3,0-124.9,0-2.1-.8-1.8-2.5-1.6-4.2.8-7.9,1.8-15.9,1.7-23.9,0-2.2-.1-4.3-2.2-5.6-5.6-4-12.3-5.4-18.7-6.1-12.9-1.4-25.7-.5-37.8,5.2a8.7,8.7,0,0,0-1.1.9c-3.9,4.2-2.3,9.2-1.6,13.7s-.3,11.9,1.2,17.8c.3.9-.5,1.9-1.6,2.2-14.3,0-28.6.1-42.9-.1-3.4,0-5,.9-5.9,4.3a194.3,194.3,0,0,0-4.7,21.4c-.1,1,.3,2.4-1.1,3q0-55.2-.1-110.4c0-3,.6-3.6,3.6-3.6q124.4.2,248.8,0c3,0,3.6.6,3.6,3.6C300.2,75.9,300.2,112.3,300.2,148.8Z" transform="translate(-44.3 -35.8)"/><path class="cls-5" d="M52.1,206.7H292.7c2.1,2.6.8,5.1-.2,7.5A138.2,138.2,0,0,1,270,249.8a128.7,128.7,0,0,1-61.2,39c-7,2.1-14.4,1.4-21.5,2.9h-29c-8.1-1.5-16.5-.9-24.5-3.5-18.1-5.9-34.3-14.8-48.5-27.7a130.5,130.5,0,0,1-31.8-43.6C52.1,213.8,49.3,210.5,52.1,206.7Z" transform="translate(-44.3 -35.8)"/><path class="cls-4" d="M52.1,206.7c7.3,22.1,20.4,40.2,38,55.1a127.2,127.2,0,0,0,65.1,28.9c1.1.1,2.4-.3,3.1,1H48.1c-3.1,0-3.8-.7-3.8-3.8q.2-54.6.1-109.2c2.5,5.3,2.1,11.2,4,16.6C49.7,199.2,50.1,203.2,52.1,206.7Z" transform="translate(-44.3 -35.8)"/><path class="cls-4" d="M187.3,291.7c5.6-2.4,11.8-2.4,17.7-4.1q62.1-17.9,86.6-77.5c.5-1.1.7-2.3,1.1-3.4,2.9-6.9,4.5-14.2,5.8-21.5.4-1.8-.2-4.1,1.7-5.4,0,36.1,0,72.3.1,108.4,0,3-.6,3.6-3.6,3.6Z" transform="translate(-44.3 -35.8)"/><path class="cls-6" d="M99,121.2c-.7-10.7-1.3-21.3-2-31.9-.1-1.9-.6-3.8,2.1-4.2s2.2,2.3,2.4,4.1c1.1,13.3,1.6,26.8,2.8,40.2.9,9.6,5.9,17.7,13.6,23.8,2.5,2,5.2,4.2,8.5,5.1,7.5,2.1,12.7-2.3,17.3-6.7,6.8-6.6,11.3-14.5,11.8-24.7.6-12.4,1.4-24.9,2.7-37.2.2-1.9.4-3.7,2.4-4.6s2.2,2.7,2.1,4.6c-.7,10.5-1.3,21-2,31.5-.5,12.3-3.8,23.7-13.3,32.1-15.3,13.5-19.8,13.5-35.1,0C102.8,144.9,99.5,133.5,99,121.2Z" transform="translate(-44.3 -35.8)"/><path class="cls-3" d="M160.6,85.1c-1,14.4-1.6,28.9-3.2,43.3s-10.5,25.4-24.2,31.7a7.2,7.2,0,0,1-6.7,0c-13.9-6.4-22.6-16.9-24.2-32.2s-2.2-28.5-3.2-42.8Q129.9,71.9,160.6,85.1Z" transform="translate(-44.3 -35.8)"/><path class="cls-4" d="M137.2,120.7c5.2-6.1,5.2-6.1,9.5-.3,1.8,2.4,3.5,5,5.5,7.2s2.9,5.6.7,8.4-5.5,4.3-8.9,2.8-7.8-.4-11.8-.3c-7,.2-14-.1-21.1.1-5.3.2-7-6.2-3.7-10.8s5-6.2,7.1-9.6,3.7-3.9,5.7-.1a28.5,28.5,0,0,0,2.2,2.8l7.4-14.5C132.4,111.3,134.7,115.8,137.2,120.7Z" transform="translate(-44.3 -35.8)"/><path class="cls-7" d="M146.4,147.2c-13.7,14.7-19.6,14.6-33,0,4.4-2.5,8.9-4.1,13.9-1.2a4.8,4.8,0,0,0,4.8.1C137,143.3,141.6,144.4,146.4,147.2Z" transform="translate(-44.3 -35.8)"/><path class="cls-8" d="M108.9,141.5c14.2-1.4,27.7-1.7,41.1.1-1.8,2.7-3.4,3.3-7.1,1.6a10,10,0,0,0-9.5,0,7.6,7.6,0,0,1-7.2,0c-3.2-1.7-6.2-1.5-9.4,0S111.4,144.9,108.9,141.5Z" transform="translate(-44.3 -35.8)"/><path class="cls-9" d="M141.1,85.5c.2,1.6-1.1,1.9-2.1,1.9s-1.7-.7-1.7-1.9.6-2,1.6-2S141.3,83.8,141.1,85.5Z" transform="translate(-44.3 -35.8)"/><path class="cls-10" d="M122.3,85.4a1.5,1.5,0,0,1-1.5,1.9c-1.1,0-2.2-.2-2.1-1.9s.9-1.6,1.8-1.7S122.3,84.1,122.3,85.4Z" transform="translate(-44.3 -35.8)"/></g></svg>